<svg data-v-423bf9ae="" xmlns="http://www.w3.org/2000/svg" viewBox="0 0 480 109" class="iconLeft"><!----><!----><defs data-v-423bf9ae=""><linearGradient data-v-423bf9ae="" gradientTransform="rotate(25)" id="f5d06642-ed52-4287-a9e0-5e6128892fb1" x1="0%" y1="0%" x2="100%" y2="0%"><stop data-v-423bf9ae="" offset="0%" style="stop-color: rgb(59, 137, 49); stop-opacity: 1;"></stop><stop data-v-423bf9ae="" offset="100%" style="stop-color: rgb(83, 186, 160); stop-opacity: 1;"></stop></linearGradient></defs><g data-v-423bf9ae="" id="cc266dee-76f1-4e69-9115-0451efa2e0f3" fill="url(#f5d06642-ed52-4287-a9e0-5e6128892fb1)" transform="matrix(6.109979823280842,0,0,6.109979823280842,110.06107526603137,12.607102710756912)"><path d="M3.23 1.94L3.23 1.94L3.23 1.94Q5.21 1.94 5.80 3.05L5.80 3.05L5.80 3.05Q6.14 3.73 6.14 4.05L6.14 4.05L6.14 4.05Q6.28 4.54 6.28 6.28L6.28 6.28L6.28 6.56L5.34 6.56L5.34 6.74L6.28 6.74L6.28 6.56L7.36 6.56L7.36 6.74L6.29 6.74L6.29 6.74Q6.29 8.16 6.19 9.93L6.19 9.93L6.19 10.55L5.32 10.55L5.32 11.73L1.26 11.73L1.26 11.07L0.45 11.07L0.45 8.04L1.01 8.04L1.01 7.78L0.14 7.78L0.14 6.84L0.14 6.84Q0.14 3.81 0.66 3.06L0.66 3.06L0.66 3.06Q0.96 2.45 1.70 2.15L1.70 2.15L1.70 2.15Q2.36 1.94 3.23 1.94ZM2.12 8.31L2.12 8.31L2.12 8.51L2.41 8.51L2.41 9.94L3.57 9.94L3.57 9.81L4.44 9.81L4.44 7.39L4.28 7.39L4.28 7.39Q4.28 4.96 4.13 4.51L4.13 4.51L4.13 4.51Q3.90 3.64 3.27 3.64L3.27 3.64L3.12 3.64L3.12 3.64Q2.41 3.64 2.24 4.65L2.24 4.65L2.24 4.65Q2.12 5.04 2.12 8.31ZM7.05 1.99L7.05 1.94L9.03 1.94L9.03 2.02L9.03 2.02Q9.03 2.95 9.37 3.44L9.37 3.44L9.37 3.44Q10.26 5.01 10.26 5.13L10.26 5.13L10.28 5.13L10.28 5.13Q10.28 5.06 11.33 3.06L11.33 3.06L11.33 3.06Q11.46 2.55 11.46 2.15L11.46 2.15L11.46 1.94L13.32 1.94L13.32 1.96L13.32 1.96Q13.32 3.34 12.83 4.03L12.83 4.03L12.83 4.03Q12.72 4.24 11.25 6.51L11.25 6.51L11.25 6.51Q11.56 7.01 11.56 7.04L11.56 7.04L10.95 7.04L10.95 7.32L11.73 7.32L11.73 7.32Q11.81 7.40 12.78 9.02L12.78 9.02L12.78 10.25L13.11 10.25L13.11 11.01L12.39 11.01L12.39 11.24L13.11 11.24L13.11 11.61L10.90 11.61L10.90 9.02L10.66 9.02L10.66 9.02Q10.20 8.04 10.20 7.98L10.20 7.98L10.18 7.98L10.18 7.98Q10.05 8.32 9.70 9.02L9.70 9.02L9.70 10.36L9.03 10.36L9.03 11.72L9.03 11.72Q8.52 11.73 8.29 11.73L8.29 11.73L7.02 11.73L6.86 11.72L6.86 10.12L7.30 10.12L7.30 8.72L8.44 8.72L8.44 8.47L7.91 8.47L7.91 7.52L8.62 7.52L8.62 7.52Q8.67 7.46 9.21 6.60L9.21 6.60L9.21 6.56L9.21 6.56Q7.61 4.17 7.46 3.93L7.46 3.93L7.46 3.93Q7.05 3.29 7.05 1.99L7.05 1.99ZM16.58 1.93L16.58 1.93L17.77 1.93L17.77 6.00L17.27 6.00L17.27 6.17L17.77 6.17L17.77 8.67L17.34 8.67L17.34 8.85L18.05 8.85L18.05 11.73L16.88 11.73L16.88 11.60L15.87 11.60L15.87 10.73L16.04 10.73L16.04 8.85L15.87 8.85L15.87 7.51L16.28 7.51L16.28 7.26L15.87 7.26L15.87 4.40L15.87 4.40Q14.68 4.93 14.53 4.93L14.53 4.93L14.53 4.93Q14.12 3.76 14.01 3.40L14.01 3.40L14.02 3.40L14.02 3.40Q15.22 3.01 16.58 1.93ZM17.77 6.17L17.77 6.00L18.79 6.00L18.79 6.17L17.77 6.17ZM19.91 7.57L21.59 1.96L23.24 1.96L23.24 1.96Q23.27 2.10 24.83 7.29L24.83 7.29L25.14 7.29L25.14 10.51L24.46 10.51L24.46 10.76L25.14 10.76L25.14 11.45L23.32 11.45L23.32 9.47L21.10 9.47L21.10 10.32L20.19 10.32L20.19 11.73L18.54 11.73L18.54 11.63L18.67 11.63L18.67 10.32L19.35 10.32L19.35 7.57L19.91 7.57ZM22.39 4.71L22.36 4.71L22.36 4.72L22.36 4.72Q22.15 5.89 21.54 8.40L21.54 8.40L23.07 8.40L23.07 7.29L22.94 7.29L22.94 7.29Q22.39 4.92 22.39 4.71L22.39 4.71ZM18.06 7.57L18.06 7.28L19.35 7.28L19.35 7.57L18.06 7.57ZM23.32 11.73L23.32 11.57L25.51 11.57L25.51 11.73L23.32 11.73ZM28.40 1.93L28.40 1.93L28.40 1.93Q31.01 1.93 31.01 4.37L31.01 4.37L31.01 4.51L31.01 4.51Q31.01 5.56 30.50 6.23L30.50 6.23L30.50 7.02L30.91 7.02L30.91 10.17L30.45 10.17L30.45 10.41L30.91 10.41L30.91 11.31L29.91 11.31L29.91 11.73L25.93 11.73L25.93 8.92L26.33 8.92L26.33 8.71L25.76 8.71L25.59 8.72L25.59 7.18L25.82 7.18L25.82 7.18Q26.11 6.70 26.61 6.52L26.61 6.52L26.61 6.51L26.61 6.51Q25.81 6.09 25.77 4.63L25.77 4.63L25.77 4.63Q25.77 2.84 26.72 2.30L26.72 2.30L26.72 2.30Q27.32 1.93 28.40 1.93ZM27.59 4.35L27.59 4.35L27.59 4.35Q27.59 5.54 27.94 5.77L27.94 5.77L27.94 5.77Q28.14 5.90 28.42 5.96L28.42 5.96L28.42 5.96Q28.68 5.92 28.92 5.75L28.92 5.75L28.92 5.75Q29.24 5.50 29.24 4.58L29.24 4.58L29.24 4.24L29.24 4.24Q29.24 3.45 28.52 3.45L28.52 3.45L28.39 3.45L28.39 3.45Q27.59 3.45 27.59 4.35ZM30.91 7.02L30.91 6.69L31.96 6.69L31.96 7.02L30.91 7.02ZM29.24 7.26L27.52 7.26L27.52 8.02L27.28 8.02L27.28 10.03L28.26 10.03L28.26 9.80L29.24 9.80L29.24 7.26ZM32.84 1.91L32.84 1.91L37.69 1.91L37.69 1.91Q37.69 1.92 37.68 1.98L37.68 1.98L37.68 1.98Q37.68 2.17 37.58 3.60L37.58 3.60L34.41 3.60L34.41 3.60Q34.39 3.73 34.28 5.63L34.28 5.63L34.28 5.63Q34.79 5.34 35.73 5.34L35.73 5.34L35.73 5.34Q37.11 5.34 37.55 6.16L37.55 6.16L37.55 6.16Q37.94 6.82 37.94 8.52L37.94 8.52L37.60 8.52L37.60 10.23L37.04 10.23L37.04 10.49L37.60 10.49L37.60 11.73L36.21 11.73L36.21 11.61L33.17 11.61L33.17 10.83L32.20 10.83L32.20 9.44L33.93 9.44L33.93 9.87L35.80 9.87L35.80 8.29L36.29 8.29L36.29 8.10L35.80 8.10L35.80 7.27L33.82 7.27L33.82 7.27Q33.79 7.27 32.53 6.73L32.53 6.73L32.53 6.73Q32.83 2.19 32.83 1.96L32.83 1.96L32.83 1.96Q32.84 1.93 32.84 1.91ZM41.10 1.93L41.10 1.93L42.30 1.93L42.30 6.00L41.79 6.00L41.79 6.17L42.30 6.17L42.30 8.67L41.86 8.67L41.86 8.85L42.58 8.85L42.58 11.73L41.41 11.73L41.41 11.60L40.40 11.60L40.40 10.73L40.56 10.73L40.56 8.85L40.40 8.85L40.40 7.51L40.81 7.51L40.81 7.26L40.40 7.26L40.40 4.40L40.40 4.40Q39.21 4.93 39.06 4.93L39.06 4.93L39.06 4.93Q38.65 3.76 38.53 3.40L38.53 3.40L38.55 3.40L38.55 3.40Q39.74 3.01 41.10 1.93ZM42.30 6.17L42.30 6.00L43.32 6.00L43.32 6.17L42.30 6.17ZM46.26 1.94L46.26 1.94L46.26 1.94Q48.24 1.94 48.83 3.05L48.83 3.05L48.83 3.05Q49.17 3.73 49.17 4.05L49.17 4.05L49.17 4.05Q49.31 4.54 49.31 6.28L49.31 6.28L49.31 6.56L48.37 6.56L48.37 6.74L49.31 6.74L49.31 6.56L50.39 6.56L50.39 6.74L49.32 6.74L49.32 6.74Q49.32 8.16 49.22 9.93L49.22 9.93L49.22 10.55L48.35 10.55L48.35 11.73L44.30 11.73L44.30 11.07L43.48 11.07L43.48 8.04L44.04 8.04L44.04 7.78L43.18 7.78L43.18 6.84L43.18 6.84Q43.18 3.81 43.69 3.06L43.69 3.06L43.69 3.06Q43.99 2.45 44.73 2.15L44.73 2.15L44.73 2.15Q45.39 1.94 46.26 1.94ZM45.15 8.31L45.15 8.31L45.15 8.51L45.44 8.51L45.44 9.94L46.60 9.94L46.60 9.81L47.47 9.81L47.47 7.39L47.31 7.39L47.31 7.39Q47.31 4.96 47.16 4.51L47.16 4.51L47.16 4.51Q46.93 3.64 46.31 3.64L46.31 3.64L46.16 3.64L46.16 3.64Q45.45 3.64 45.27 4.65L45.27 4.65L45.27 4.65Q45.15 5.04 45.15 8.31ZM49.89 6.41L49.89 1.98L54.78 1.98L54.78 3.60L51.83 3.60L51.83 5.91L54.37 5.91L54.41 5.93L54.39 5.97L54.39 5.97Q54.37 6.46 54.37 6.54L54.37 6.54L54.09 6.54L54.09 6.56L54.09 6.56Q54.09 6.73 54.06 7.31L54.06 7.31L54.33 7.31L54.33 7.31Q54.33 7.59 54.28 7.59L54.28 7.59L52.49 7.59L52.49 7.92L51.55 7.92L51.55 8.10L51.83 8.10L51.83 8.96L52.76 8.96L52.76 9.11L51.83 9.11L51.83 11.47L51.81 11.58L50.81 11.58L50.81 11.73L49.92 11.73L49.92 11.73Q49.89 11.73 49.89 11.70L49.89 11.70L49.89 11.45L49.90 11.29L50.38 11.29L50.38 11.04L49.89 11.04L49.89 10.10L50.12 10.10L50.12 6.66L50.51 6.66L50.51 6.41L49.89 6.41ZM51.81 8.96L50.92 8.96L50.92 9.11L51.81 9.11L51.81 8.96ZM57.82 1.95L57.82 1.95L57.82 1.95Q59.62 1.95 60.09 3.12L60.09 3.12L60.09 3.12Q60.35 3.77 60.35 4.79L60.35 4.79L60.35 4.79Q60.35 6.53 58.69 8.15L58.69 8.15L59.80 8.15L59.80 8.26L58.63 8.26L58.67 8.15L58.01 8.15L58.01 8.26L58.63 8.26L58.63 8.83L57.75 8.83L57.75 9.34L58.11 9.34L58.11 10.05L60.46 10.05L60.46 11.57L58.11 11.57L58.11 11.73L55.06 11.73L55.06 10.18L55.64 10.18L55.64 8.51L56.17 8.51L56.17 7.20L56.57 7.20L56.57 7.05L57.48 7.05L57.48 7.05Q58.02 6.46 58.19 6.11L58.19 6.11L58.19 6.11Q58.54 5.54 58.54 4.80L58.54 4.80L58.54 4.80Q58.54 3.90 58.25 3.66L58.25 3.66L58.25 3.66Q58.04 3.55 57.83 3.55L57.83 3.55L57.64 3.55L57.64 3.55Q57.02 3.55 56.83 4.35L56.83 4.35L56.83 4.35Q56.72 4.79 56.72 5.18L56.72 5.18L56.72 5.18Q56.71 5.18 56.71 5.20L56.71 5.20L56.71 5.20Q55.18 5.07 55.06 5.07L55.06 5.07L55.06 5.07Q55.06 3.95 55.43 3.07L55.43 3.07L55.43 3.07Q55.60 2.74 55.99 2.40L55.99 2.40L55.99 2.40Q56.64 1.95 57.82 1.95ZM57.38 7.20L57.38 7.20L58.25 7.20L58.25 7.05L57.53 7.05L57.53 7.05Q57.51 7.05 57.38 7.20Z"></path></g><!----><g data-v-423bf9ae="" id="5b38cca4-e27e-46da-8a3a-521778662bc8" transform="matrix(1.0982527838812934,0,0,1.0982527838812934,-9.298321641099434,-0.3262893705761414)" stroke="none" fill="#3b8931"><style>.st1{display:inline}</style><path d="M51.1 18.9L61.3.5 9.4 52.4c-2 2-.2 5.4 2.6 4.8l39.6-8.5c9.4 0 16.9 7.6 16.9 16.9 0 9.4-7.6 16.9-16.9 16.9-4.3 0-19.5.8-34.4-14.2-1.1-1.2-3.1-.2-2.8 1.4 1.7 8.5 7.5 24.6 26.7 28.7 24.1 5.2 48.2-11.7 50.1-36.2 1.9-23.6-16.8-43.3-40.1-43.3zM29.9 47.1c-1.9 0-3.7-.7-5-1.8l11.2-11.2c1.1 1.4 1.8 3.1 1.8 5 0 4.5-3.6 8-8 8z"></path></g><!----></svg>